<svg width="50" height="50" viewBox="0 0 50 50" fill="none" xmlns="http://www.w3.org/2000/svg">
<path d="M24.1667 35C23.9478 35.7934 23.5748 36.5359 23.069 37.1852C22.5631 37.8344 21.9344 38.3777 21.2186 38.7839C20.5028 39.1902 19.714 39.4515 18.8972 39.5529C18.0805 39.6543 17.2517 39.5939 16.4583 39.375C15.6649 39.1561 14.9224 38.7831 14.2732 38.2773C13.6239 37.7715 13.0806 37.1427 12.6744 36.4269C12.2681 35.7111 12.0068 34.9223 11.9054 34.1056C11.804 33.2888 11.8645 32.4601 12.0833 31.6667M6.25 22.9167L43.75 12.5V37.5L6.25 29.1667V22.9167Z" stroke="#E50005" stroke-width="2" stroke-linecap="round" stroke-linejoin="round"/>
</svg>
