<svg width="30" height="30" viewBox="0 0 30 30" fill="none" xmlns="http://www.w3.org/2000/svg">
<path d="M18.4875 26.9046C19.7106 27.6935 21.168 28.0374 22.6147 27.8784C24.0615 27.7192 25.4093 27.0668 26.4316 26.0307L27.3253 25.1569C27.7171 24.756 27.9365 24.2179 27.9365 23.6575C27.9365 23.097 27.7171 22.5587 27.3253 22.1581L23.532 18.4044C23.1346 18.0138 22.5997 17.795 22.0425 17.795C21.4853 17.795 20.9504 18.0138 20.553 18.4044C20.1522 18.7962 19.614 19.0156 19.0535 19.0156C18.493 19.0156 17.9548 18.7962 17.5541 18.4044L11.596 12.4463C11.3972 12.2504 11.2394 12.017 11.1317 11.7596C11.0239 11.5022 10.9685 11.2259 10.9685 10.9469C10.9685 10.6678 11.0239 10.3916 11.1317 10.1341C11.2394 9.87672 11.3972 9.64329 11.596 9.44742C11.9866 9.05002 12.2054 8.5151 12.2054 7.95791C12.2054 7.4007 11.9866 6.8658 11.596 6.46838L7.82259 2.69493C7.42176 2.30312 6.88362 2.08374 6.32319 2.08374C5.76255 2.08374 5.22441 2.30312 4.82359 2.69493L3.9497 3.58865C2.91381 4.61093 2.26143 5.95878 2.10222 7.40552C1.943 8.85228 2.2869 10.3097 3.07601 11.5328C7.18712 17.5916 12.4181 22.809 18.4875 26.9046Z" stroke="black" stroke-width="1.71" stroke-linecap="round" stroke-linejoin="round"/>
</svg>
