<svg width="50" height="50" viewBox="0 0 50 50" fill="none" xmlns="http://www.w3.org/2000/svg">
<path d="M29.1667 22.9167C29.1667 24.0217 28.7277 25.0815 27.9463 25.8629C27.1649 26.6443 26.1051 27.0833 25 27.0833C23.8949 27.0833 22.8351 26.6443 22.0537 25.8629C21.2723 25.0815 20.8333 24.0217 20.8333 22.9167C20.8333 20.7065 21.7113 18.5869 23.2741 17.0241C24.8369 15.4613 26.9565 14.5833 29.1667 14.5833C31.3768 14.5833 33.4964 15.4613 35.0592 17.0241C36.622 18.5869 37.5 20.7065 37.5 22.9167C37.5 26.2319 36.183 29.4113 33.8388 31.7555C31.4946 34.0997 28.3152 35.4167 25 35.4167C21.6848 35.4167 18.5054 34.0997 16.1612 31.7555C13.817 29.4113 12.5 26.2319 12.5 22.9167C12.5 18.4964 14.2559 14.2572 17.3816 11.1316C20.5072 8.00595 24.7464 6.25 29.1667 6.25C33.5869 6.25 37.8262 8.00595 40.9518 11.1316C44.0774 14.2572 45.8333 18.4964 45.8333 22.9167C45.8333 28.442 43.6384 33.7411 39.7314 37.6481C35.8244 41.5551 30.5253 43.75 25 43.75C19.4747 43.75 14.1756 41.5551 10.2686 37.6481C6.3616 33.7411 4.16667 28.442 4.16667 22.9167C4.15899 17.4867 5.92978 12.2035 9.20833 7.875C9.52755 7.40421 9.93979 7.00377 10.4196 6.69834C10.8995 6.39291 11.4368 6.18897 11.9985 6.09907C12.5601 6.00917 13.1342 6.03522 13.6854 6.17562C14.2366 6.31602 14.7533 6.5678 15.2035 6.91543C15.6537 7.26306 16.028 7.6992 16.3032 8.19696C16.5785 8.69473 16.7489 9.24359 16.804 9.80972C16.8591 10.3759 16.7978 10.9473 16.6236 11.4888C16.4495 12.0303 16.1664 12.5304 15.7917 12.9583" stroke="white" stroke-opacity="0.6" stroke-width="2" stroke-linecap="round" stroke-linejoin="round"/>
</svg>
