<svg width="28" height="28" viewBox="0 0 28 28" fill="none" xmlns="http://www.w3.org/2000/svg">
<path d="M14.0007 1.81885C7.36346 1.82092 1.81821 7.37331 1.81824 14.0051C1.81826 16.396 2.52985 18.7578 3.858 20.7544L1.81445 26.1914L8.65749 24.9539C10.3291 25.7709 12.1647 26.1802 14.0007 26.1814C20.6437 26.186 26.1941 20.641 26.1941 14.0051C26.1941 7.37679 20.6417 1.81493 14.0007 1.81885Z" stroke="black" stroke-width="1.71" stroke-linecap="round" stroke-linejoin="round"/>
<path d="M14.6715 19.3719C16.3201 20.4302 18.039 19.6594 19.236 18.7666C20.0628 18.1499 20.0354 16.9605 19.3292 16.2087L17.9366 14.7262C17.4084 15.2545 16.379 15.5159 15.6638 15.2982C14.1265 14.8304 13.4813 14.0293 12.9584 13.2148C12.3579 12.2793 13.0361 10.8821 13.5643 10.3539L12.0121 8.93688C11.3578 8.3395 10.3638 8.2387 9.79288 8.91626C8.66321 10.2568 7.96066 12.292 8.79269 13.5879C10.2863 15.9143 12.345 17.8785 14.6715 19.3719Z" stroke="black" stroke-width="1.71" stroke-linecap="round" stroke-linejoin="round"/>
</svg>
